P2
3 4 255
255 128 64 64 255 196
32 64 255 224 255 96